<?xml version="1.0" encoding="iso-8859-1"?>
<!-- Uploaded to: SVG Repo, www.svgrepo.com, Generator: SVG Repo Mixer Tools -->
<svg fill="#000000" height="800px" width="800px" version="1.1" id="Layer_1" xmlns="http://www.w3.org/2000/svg" xmlns:xlink="http://www.w3.org/1999/xlink" 
	 viewBox="0 0 496 496" xml:space="preserve">
<g>
	<g>
		<path d="M496,0H0v328h286.8l-29.088,120H216v48h280v-48h-41.712L425.2,328H496V0z M256,120.808c18.232,3.72,32,19.872,32,39.192
			s-13.768,35.472-32,39.192V120.808z M16,120h40v88H16V120z M240,199.192c-18.232-3.72-32-19.872-32-39.192
			s13.768-35.472,32-39.192V199.192z M240,104.64c-27.088,3.904-48,27.208-48,55.36c0,28.152,20.912,51.456,48,55.36V312H16v-88h56
			V104H16V16h224V104.64z M480,464v16H232v-16H480z M437.832,448H274.168l34.912-144H368v-16h-55.04l3.88-16h78.328l3.88,16H384v16
			h18.92L437.832,448z M320.712,256l13.576-56H344h24h9.712l13.576,56H320.712z M480,208h-40v-88h40V208z M480,104h-56v120h56v88
			h-58.68l-31.032-128H368h-24h-22.288L290.68,312H256v-96.64c27.088-3.904,48-27.208,48-55.36c0-28.152-20.912-51.456-48-55.36V16
			h224V104z"/>
	</g>
</g>
</svg>