<?xml version="1.0" encoding="iso-8859-1"?>
<!-- Uploaded to: SVG Repo, www.svgrepo.com, Generator: SVG Repo Mixer Tools -->
<svg version="1.1" id="Layer_1" xmlns="http://www.w3.org/2000/svg" xmlns:xlink="http://www.w3.org/1999/xlink" 
	 viewBox="0 0 480 480" xml:space="preserve">
<g>
	<path style="fill:#51B59F;" d="M56,432.616V464h31.192C84,448,72,435.808,56,432.616z"/>
	<path style="fill:#51B59F;" d="M240,296c-28.16,0-51.456-24-55.36-48H56v168.448C80,419.976,99.84,440,103.36,464H152v-88.192
		c0-4.416,3.584-7.808,8-7.808h33.512c5.208-16,23.736-24,46.488-24s41.28,8,46.488,24H320c4.416,0,8,3.392,8,7.808V464h48.64
		c3.52-24,23.36-44.024,47.36-47.552V248H295.36C291.456,272,268.152,296,240,296z"/>
	<path style="fill:#51B59F;" d="M240,280c19.312,0,35.472-16,39.192-32h-78.384C204.528,264,220.688,280,240,280z"/>
	<path style="fill:#51B59F;" d="M212.888,368h54.224c-5.544-8-15.336-8-27.112-8S218.432,360,212.888,368z"/>
	<path style="fill:#51B59F;" d="M168,464h16v-32.192c0-4.416,3.584-7.808,8-7.808h96c4.416,0,8,3.392,8,7.808V464h16v-80H168V464z
		 M232,399.808h16v8h-16V399.808z"/>
	<path style="fill:#51B59F;" d="M240,200c-19.312,0-35.472,16-39.192,32h78.384C275.472,216,259.312,200,240,200z"/>
	<rect x="200" y="440" style="fill:#51B59F;" width="80" height="24"/>
	<path style="fill:#51B59F;" d="M312,16h-16v31.808c0,4.424-3.584,8.192-8,8.192h-96c-4.416,0-8-3.768-8-8.192V16h-16v80h144V16z
		 M248,79.808h-16v-8h16V79.808z"/>
	<rect x="200" y="16" style="fill:#51B59F;" width="80" height="24"/>
	<path style="fill:#51B59F;" d="M376.64,16H328v87.808c0,4.424-3.584,8.192-8,8.192h-33.512c-5.208,16-23.736,24-46.488,24
		s-41.28-8-46.488-24H160c-4.416,0-8-3.768-8-8.192V16h-48.64C99.84,40,80,59.648,56,63.176V232h128.64c3.904-24,27.208-48,55.36-48
		s51.456,24,55.36,48H424V63.176C400,59.648,380.16,40,376.64,16z"/>
	<path style="fill:#51B59F;" d="M424,47V16h-31.192C396,32,408,43.816,424,47z"/>
	<path style="fill:#51B59F;" d="M87.192,16H56v31C72,43.816,84,32,87.192,16z"/>
	<path style="fill:#51B59F;" d="M267.112,112h-54.224c5.544,8,15.336,8,27.112,8S261.568,120,267.112,112z"/>
	<path style="fill:#51B59F;" d="M392.808,464H424v-31.384C408,435.808,396,448,392.808,464z"/>
</g>
<g>
	<path style="fill:#334C5B;" d="M432,0H320h-32h-96h-32H48c-4.416,0-8,3.392-8,7.808v464c0,4.424,3.584,8.192,8,8.192h112h32h96h32
		h112c4.416,0,8-3.768,8-8.192v-464C440,3.392,436.416,0,432,0z M200,16h80v24h-80V16z M168,16h16v31.808
		c0,4.424,3.584,8.192,8,8.192h96c4.416,0,8-3.768,8-8.192V16h16v80H168V16z M267.112,112c-5.544,8-15.336,8-27.112,8
		s-21.568,0-27.112-8H267.112z M56,16h31.192C84,32,72,43.816,56,47V16z M56,464v-31.384C72,435.808,84,448,87.192,464H56z M280,464
		h-80v-24h80V464z M312,464h-16v-32.192c0-4.416-3.584-7.808-8-7.808h-96c-4.416,0-8,3.392-8,7.808V464h-16v-80h144V464z
		 M212.888,368c5.544-8,15.336-8,27.112-8s21.568,0,27.112,8H212.888z M424,464h-31.192C396,448,408,435.808,424,432.616V464z
		 M424,416.448C400,419.976,380.16,440,376.64,464H328v-88.192c0-4.416-3.584-7.808-8-7.808h-33.512c-5.208-16-23.736-24-46.488-24
		s-41.28,8-46.488,24H160c-4.416,0-8,3.392-8,7.808V464h-48.64C99.84,440,80,419.976,56,416.448V248h128.64
		c3.904,24,27.208,48,55.36,48s51.456-24,55.36-48H424V416.448z M279.192,248c-3.72,16-19.88,32-39.192,32s-35.472-16-39.192-32
		H279.192z M200.808,232c3.72-16,19.872-32,39.192-32c19.312,0,35.472,16,39.192,32H200.808z M424,232H295.36
		c-3.904-24-27.208-48-55.36-48c-28.16,0-51.456,24-55.36,48H56V63.176C80,59.648,99.84,40,103.36,16H152v87.808
		c0,4.424,3.584,8.192,8,8.192h33.512c5.208,16,23.736,24,46.488,24s41.28-8,46.488-24H320c4.416,0,8-3.768,8-8.192V16h48.64
		C380.16,40,400,59.648,424,63.176V232z M424,47c-16-3.184-28-15-31.192-31H424V47z"/>
	<rect x="232" y="71.808" style="fill:#334C5B;" width="16" height="8"/>
	<rect x="232" y="399.808" style="fill:#334C5B;" width="16" height="8"/>
</g>
</svg>